<svg xmlns="http://www.w3.org/2000/svg" viewBox="0 0 64 64" role="img" aria-label="PocketHive">
  <defs>
    <radialGradient id="lens" cx="50%" cy="45%" r="55%">
      <stop offset="0" stop-color="#ff4b32"/>
      <stop offset="0.42" stop-color="#c71212"/>
      <stop offset="1" stop-color="#30090a"/>
    </radialGradient>
  </defs>

  <polygon
    points="32 4 55 17.5 55 46.5 32 60 9 46.5 9 17.5"
    fill="#111315"
    stroke="#ffbf1a"
    stroke-width="4"
    stroke-linejoin="round"/>

  <g stroke-linecap="round" stroke-linejoin="round">
    <path d="M22 29 L13 24" stroke="#ffbf1a" stroke-width="1.8"/>
    <path d="M22 35 L13 40" stroke="#ffbf1a" stroke-width="1.8"/>
    <path d="M42 29 L51 24" stroke="#ffbf1a" stroke-width="1.8"/>
    <path d="M42 35 L51 40" stroke="#ffbf1a" stroke-width="1.8"/>
    <path d="M32 21 L32 12" stroke="#ffbf1a" stroke-width="1.8"/>
    <path d="M32 43 L32 52" stroke="#ffbf1a" stroke-width="1.8"/>

    <circle cx="13" cy="24" r="3" fill="#f7f8f4" stroke="#f7f8f4" stroke-width="1"/>
    <circle cx="13" cy="40" r="3" fill="#f7f8f4" stroke="#f7f8f4" stroke-width="1"/>
    <circle cx="51" cy="24" r="3" fill="#f7f8f4" stroke="#f7f8f4" stroke-width="1"/>
    <circle cx="51" cy="40" r="3" fill="#f7f8f4" stroke="#f7f8f4" stroke-width="1"/>
    <circle cx="32" cy="12" r="3" fill="#f7f8f4" stroke="#f7f8f4" stroke-width="1"/>
    <circle cx="32" cy="52" r="3" fill="#f7f8f4" stroke="#f7f8f4" stroke-width="1"/>
  </g>

  <g>
    <rect x="22.5" y="21" width="19" height="24" rx="2" fill="#1a1d20" stroke="#f7f8f4" stroke-width="1.7"/>
    <rect x="25.5" y="24" width="13" height="13" rx="1" fill="#0c0d0e" stroke="#696d72" stroke-width="1.3"/>
    <circle cx="32" cy="30.5" r="6.4" fill="url(#lens)" stroke="#2a0708" stroke-width="1.5"/>
    <circle cx="32" cy="30.5" r="3.7" fill="#e02018" opacity="0.7"/>
    <path d="M26.5 39.5 H37.5" stroke="#8e949c" stroke-width="1.5" stroke-linecap="round"/>
    <path d="M26.5 43 H37.5" stroke="#8e949c" stroke-width="1.5" stroke-linecap="round"/>
    <path d="M29.5 20.5 V16" stroke="#f7f8f4" stroke-width="1.6" stroke-linecap="round"/>
    <path d="M34.5 20.5 V16" stroke="#f7f8f4" stroke-width="1.6" stroke-linecap="round"/>
  </g>
</svg>
